<?xml version="1.0" encoding="iso-8859-1"?>
<!-- Uploaded to: SVG Repo, www.svgrepo.com, Generator: SVG Repo Mixer Tools -->
<svg fill="#000000" height="800px" width="800px" version="1.1" id="Layer_1" xmlns="http://www.w3.org/2000/svg" xmlns:xlink="http://www.w3.org/1999/xlink" 
	 viewBox="0 0 503.607 503.607" xml:space="preserve">
<g>
	<g>
		<path d="M398.865,209.836h-12.766v-81.467c0-24.5-19.934-44.435-44.435-44.435h-1.066l-5.741-10.005
			c-5.389-9.401-8.242-19.892-8.242-30.342C326.614,19.557,304.732,0,277.831,0h-85.63c-26.901,0-48.783,19.557-48.783,43.587
			c0,10.45-2.854,20.942-8.242,30.342l-5.741,10.005h-1.066c-24.5,0-44.435,19.934-44.435,44.435v246.868
			c0,24.5,19.934,44.435,44.435,44.435h1.066l5.741,10.005c5.389,9.401,8.242,19.892,8.242,30.342
			c0,24.03,21.882,43.587,48.783,43.587h85.63c26.901,0,48.783-19.557,48.783-43.587c0-10.45,2.854-20.942,8.242-30.342
			l5.741-10.005h1.066c24.5,0,44.435-19.934,44.435-44.435V293.77h12.766c11.474,0,20.807-9.334,20.807-20.807v-42.32
			C419.672,219.17,410.339,209.836,398.865,209.836z M149.739,82.281c6.849-11.935,10.467-25.315,10.467-38.694
			c0-14.781,14.353-26.8,31.996-26.8h85.63c17.643,0,31.996,12.019,31.996,26.8c0,13.379,3.618,26.758,10.467,38.694l0.948,1.654
			H148.791L149.739,82.281z M176.262,184.656c-4.642,0-8.393-3.76-8.393-8.393s3.752-8.393,8.393-8.393h58.754
			c4.642,0,8.393,3.76,8.393,8.393s-3.752,8.393-8.393,8.393H176.262z M218.229,209.836c0,4.633-3.752,8.393-8.393,8.393h-33.574
			c-4.642,0-8.393-3.76-8.393-8.393s3.752-8.393,8.393-8.393h33.574C214.478,201.443,218.229,205.203,218.229,209.836z
			 M243.41,201.443h50.361c4.642,0,8.393,3.76,8.393,8.393s-3.752,8.393-8.393,8.393H243.41c-4.642,0-8.393-3.76-8.393-8.393
			S238.768,201.443,243.41,201.443z M293.77,184.656h-25.18c-4.642,0-8.393-3.76-8.393-8.393s3.752-8.393,8.393-8.393h25.18
			c4.642,0,8.393,3.76,8.393,8.393S298.412,184.656,293.77,184.656z M293.77,151.082H176.262c-4.642,0-8.393-3.76-8.393-8.393
			s3.752-8.393,8.393-8.393H293.77c4.642,0,8.393,3.76,8.393,8.393S298.412,151.082,293.77,151.082z M320.294,421.326
			c-6.849,11.935-10.467,25.315-10.467,38.694c0,14.781-14.353,26.8-31.996,26.8h-85.63c-17.643,0-31.996-12.019-31.996-26.8
			c0-13.379-3.618-26.758-10.467-38.694l-0.948-1.654h172.452L320.294,421.326z M344.131,327.344h-11.6l-22.855,45.719
			c-1.561,3.106-4.826,4.961-8.343,4.6c-3.458-0.344-6.345-2.787-7.269-6.144l-20.01-73.35l-15.058,25.105
			c-1.511,2.526-4.239,4.071-7.193,4.071h-20.69l-31.081,46.626c-1.57,2.35-4.205,3.735-6.983,3.735
			c-0.445,0-0.89-0.034-1.343-0.109c-3.248-0.529-5.884-2.904-6.757-6.077l-20.329-74.534l-23.342,35.017
			c-1.561,2.333-4.18,3.735-6.983,3.735h-16.787c-4.642,0-8.393-3.76-8.393-8.393c0-4.633,3.752-8.393,8.393-8.393h12.296
			l31.081-46.626c1.821-2.728,5.053-4.146,8.326-3.626c3.248,0.529,5.884,2.904,6.757,6.077l20.329,74.534l23.342-35.017
			c1.561-2.333,4.18-3.735,6.983-3.735h20.43l22.738-37.896c1.729-2.871,4.969-4.457,8.343-3.995c3.324,0.462,6.06,2.871,6.95,6.11
			l19.397,71.134l15.352-30.712c1.427-2.845,4.331-4.642,7.512-4.642h16.787c4.642,0,8.393,3.76,8.393,8.393
			C352.525,323.584,348.773,327.344,344.131,327.344z"/>
	</g>
</g>
</svg>