<?xml version="1.0" encoding="iso-8859-1"?>
<!-- Uploaded to: SVG Repo, www.svgrepo.com, Generator: SVG Repo Mixer Tools -->
<!DOCTYPE svg PUBLIC "-//W3C//DTD SVG 1.1//EN" "http://www.w3.org/Graphics/SVG/1.1/DTD/svg11.dtd">
<svg fill="#000000" version="1.1" id="Capa_1" xmlns="http://www.w3.org/2000/svg" xmlns:xlink="http://www.w3.org/1999/xlink" 
	 width="800px" height="800px" viewBox="0 0 167.865 167.865"
	 xml:space="preserve">
<g>
	<g>
		<polygon points="144.654,0 111.126,0 89.422,31.009 106.176,54.96 		"/>
		<path d="M89.428,68.104V62.81h11.262L56.732,0H23.211l43.958,62.81h11.286v5.294H55.134l-28.792,49.88l28.792,49.882h57.6
			l28.796-49.882l-28.796-49.88H89.428z M58.733,74.339h50.396l18,31.174H40.73L58.733,74.339z M116.771,124.791l0.372,0.407
			l0.853,0.178h1.156v2.824h-9.84v-2.824h0.768l1.133-0.135l0.426-0.401l0.134-1.005v-12.586l-4.98,16.951h-2.825l-4.823-16.403
			v12.434l0.146,0.651l0.438,0.359l0.919,0.128h0.98v2.831h-8.391v-2.831h0.828l1.071-0.14l0.427-0.438l0.134-1.108v-11.46
			l-0.109-1.028l-0.39-0.47l-0.841-0.14h-1.12v-2.832h9.249l3.551,12.453l3.678-12.453h9.42v2.832h-1.011l-1.139,0.341
			c-0.207,0.231-0.317,0.664-0.317,1.297v11.612L116.771,124.791z M84.185,124.815l0.423,0.42c0.207,0.092,0.606,0.141,1.185,0.141
			h0.724v2.824h-9.983v-2.824h0.542c0.7,0,1.154-0.049,1.349-0.141l0.447-0.469c0.106-0.219,0.149-0.658,0.149-1.315v-3.203
			l-5.438-8.287c-0.429-0.64-0.81-1.048-1.132-1.212c-0.231-0.115-0.694-0.164-1.392-0.164v-2.832h10.157v2.832h-0.761l-1.011,0.128
			l-0.204,0.396l0.469,1.139l2.685,4.445l2.987-4.628l0.438-0.676l0.061-0.323l-0.167-0.365l-0.786-0.115h-1.041v-2.832h8.156v2.832
			c-0.713,0.006-1.218,0.092-1.504,0.25s-0.637,0.529-1.035,1.126l-5.45,7.946v3.647C84.061,124.206,84.097,124.626,84.185,124.815z
			 M55.162,121.759c0.518,1.181,1.184,2.058,2.012,2.63c0.834,0.573,1.745,0.858,2.743,0.858c0.7,0,1.373-0.14,1.997-0.42
			c0.633-0.279,1.066-0.597,1.294-0.956c0.238-0.347,0.356-0.821,0.356-1.419v-0.755l-0.106-0.979l-0.429-0.427l-1.06-0.128h-1.166
			v-2.861h9.989v2.861h-0.749l-1.005,0.128l-0.399,0.42l-0.131,1.09v6.399H65.51l-0.773-1.461c-0.917,0.609-1.87,1.06-2.856,1.364
			c-0.99,0.304-2.013,0.456-3.078,0.456c-1.866,0-3.562-0.456-5.097-1.363c-1.531-0.914-2.743-2.187-3.635-3.812
			c-0.898-1.631-1.346-3.458-1.346-5.479c0-2.01,0.441-3.794,1.328-5.377c0.886-1.589,2.122-2.838,3.705-3.751
			c1.589-0.913,3.31-1.376,5.169-1.376c0.896,0,1.788,0.122,2.686,0.347c0.898,0.231,1.666,0.536,2.29,0.92l0.542-0.914h2.058
			l1.839,6.771l-2.694,0.877c-0.917-1.486-1.65-2.49-2.183-3.032c-0.536-0.536-1.145-0.956-1.833-1.261
			c-0.686-0.299-1.358-0.457-2.013-0.457c-0.922,0-1.796,0.269-2.6,0.805c-0.81,0.535-1.44,1.32-1.921,2.35
			c-0.469,1.029-0.697,2.277-0.697,3.751C54.394,119.177,54.65,120.571,55.162,121.759z M109.129,161.63H58.733L40.73,130.454
			h86.387L109.129,161.63z"/>
		<polygon points="70.019,89.741 73.298,88.024 76.577,89.741 75.956,86.091 78.611,83.497 74.945,82.968 73.298,79.64 
			71.651,82.968 67.979,83.497 70.643,86.091 		"/>
		<polygon points="91.283,90.46 94.564,88.731 97.84,90.46 97.219,86.794 99.88,84.21 96.208,83.671 94.564,80.349 92.915,83.671 
			89.249,84.21 91.904,86.794 		"/>
		<polygon points="60.011,96.196 59.381,99.85 62.667,98.133 65.948,99.85 65.324,96.196 67.979,93.614 64.313,93.079 
			62.667,89.741 61.022,93.079 57.347,93.614 		"/>
		<polygon points="81.275,96.556 80.651,100.209 83.93,98.479 87.208,100.209 86.584,96.556 89.249,93.962 85.577,93.432 
			83.93,90.101 82.283,93.432 78.611,93.962 		"/>
		<polygon points="102.535,96.196 101.908,99.85 105.196,98.133 108.478,99.85 107.851,96.196 110.512,93.614 106.84,93.079 
			105.196,89.741 103.545,93.079 99.88,93.614 		"/>
		<polygon points="97.84,146.219 94.564,147.942 91.283,146.219 91.904,149.872 89.249,152.466 92.915,152.996 94.564,156.327 
			96.208,152.996 99.88,152.466 97.219,149.872 		"/>
		<polygon points="76.577,145.513 73.298,147.241 70.019,145.513 70.643,149.172 67.979,151.766 71.651,152.29 73.298,155.62 
			74.945,152.29 78.611,151.766 75.956,149.172 		"/>
		<polygon points="107.851,139.765 108.478,136.11 105.196,137.84 101.908,136.11 102.535,139.765 99.88,142.358 103.545,142.888 
			105.196,146.219 106.84,142.888 110.512,142.358 		"/>
		<polygon points="86.584,139.417 87.208,135.757 83.93,137.48 80.651,135.757 81.275,139.417 78.611,142.005 82.283,142.541 
			83.93,145.859 85.577,142.541 89.249,142.005 		"/>
		<polygon points="65.324,139.765 65.948,136.11 62.667,137.84 59.381,136.11 60.011,139.765 57.347,142.358 61.022,142.888 
			62.667,146.219 64.313,142.888 67.979,142.358 		"/>
	</g>
</g>
</svg>